<?xml version="1.0" encoding="UTF-8"?>
<svg xmlns="http://www.w3.org/2000/svg" viewBox="0 0 64 64" fill="none" role="img" aria-label="CharID">
<g aria-hidden="true" stroke="#4e7470" stroke-width="2.25" stroke-linecap="round" stroke-linejoin="round" fill="none">
    <path d="M 32 32 L 27.468 37.478"/>
    <path d="M 27.468 37.478 L 24.904 32.446"/>
    <path d="M 32 32 L 21.669 32.65"/>
    <path d="M 21.669 32.65 L 24.454 24.914"/>
    <path d="M 32 32 L 21.99 22.6"/>
    <path d="M 21.99 22.6 L 32 18.268"/>
    <path d="M 32 32 L 32 14.795"/>
    <path d="M 32 14.795 L 44.542 20.223"/>
    <path d="M 32 32 L 47.125 17.797"/>
    <path d="M 47.125 17.797 L 52.708 33.303"/>
    <path d="M 32 32 L 56.302 33.529"/>
    <path d="M 56.302 33.529 L 47.521 50.762"/>
    <path d="M 32 32 L 49.848 53.574"/>
    <path d="M 49.848 53.574 L 28.491 59.779"/>
    <path d="M 28.948 56.158 L 32 32"/>
  </g>
</svg>
