<?xml version="1.0" encoding="UTF-8"?>
<svg id="Layer_1" xmlns="http://www.w3.org/2000/svg" version="1.1" viewBox="0 0 161.45 184.91">
  <!-- Generator: Adobe Illustrator 30.5.1, SVG Export Plug-In . SVG Version: 2.1.4 Build 3)  -->
  <defs>
    <style>
      .st0 {
        fill: #4e7470;
      }
    </style>
  </defs>
  <path class="st0" d="M54.23,141.58l-1.22,3.01c-.9,1.76-2.19,3.4-3.81,4.52l-4.65,2.48-2.88,3.92-1.55,3.8.1,2.78c.25,3.08-1.17,4.9-4.11,6.03-2.18-.08-4.39-1.02-6.25-2.35l-2.22-2.11-2.59-4.01-4.62-4.88-2.23-3.16-2.43-3.14c-.86-2.35-1.15-4.43-.71-6.86,1.59-2.11,3.16-3.78,5.26-5.02,1.66-.33,3.06-.91,4.15-1.8l3.38-2.31c2.54-.52,4.8-.68,7.32-.41l3.86.72c1.93-.29,4.12-1.12,5.72-2.33l2.29-1.33,1.86-.41.07-2.26-2.01-4.22-.86-3.22-.67-1.58-2.2-.04-3.29,2.87-3.08,1.79c-1.91.74-3.87,1.14-5.95.74-1.7-.28-3.87-.14-5.12.39l-5.24,3.63c-.76,1.08-1.6,2.63-2.27,4.2-.95,1.77-2.73,3.44-4.46,4.36-2.9,1.17-5.34.79-7.33-1.52-1.76-1.31-2.84-3.49-2.89-5.64l-.92-3.14-1.4-5.08c-1.12-3.33-1.44-6.93-.82-10.49l-.12-6L0,96.83c1.1-3.05,2.42-4.94,5.21-6.61,2.35.01,4.43.16,6.63.57,1.13.71,2.55.81,3.77.29,2.38-.25,4.44-.06,6.89.35l3.97,2.81,2.77,2.62c.68,2.16,2.25,3.36,4.23,4.21,1.81,1.24,3.95,1.56,5.99.82l3.81-.06.45-4.39.67-3.31.34-2.74-2.69-1.07-5.31-.05c-2.53-.57-4.72-1.78-5.32-4.57l-2.78-3.04-3.52-1.58-2.98-.43-4.46.14c-1.06-.1-2.64.36-3.49,1.09l-5.09,2.49c-2.38-.09-4.15-.53-6.25-1.52-1.51-1.7-2.21-3.63-2.82-6.29l1.53-7.23c.4-2.19,1.02-4.31,2.19-6.15,1.38-1.93,2.24-3.87,2.89-6.14l3.71-5.8c.99-2.24,2.03-4.35,3.14-6.38l5.12-2.44c2.13,0,4.42.7,6.13,2.16l2.08.76c2.01.34,3.45.73,5.32,1.36,1.72,1.4,3.31,2.8,4.61,4.32l2.17,3.91c2.34,1.72,3.05,4.46,2.08,7.42.63,1.95,1.63,4.1,2.7,5.64,1.96.78,3.05,1.79,4.04,3.26l3.48,1.9,2.62-3.7,1.62-2.54,2.79-3.24,2.31-2.22-1.98-2.54c-1.8-.56-3.08-1.08-4.28-1.7l-3-4.7-.34-4.27-3.4-5.26c-1.82-.93-2.77-1.55-4.19-2.67-1.15-1.42-3.23-2.4-4.96-2.37-2.41.3-4.39.2-6.76-.16-3.24-1.91-3.84-5.37-1.9-8.57l3.52-3.16,2.67-3.89c1.48-2.45,3.94-4.27,6.69-5.19l7.29-4.71,3.68-1.69c4-1.48,7.75.18,10.22,3.43.79.95,1.58,2.12,2.16,3.21.6,1.69,1.26,3.03,2.15,4.44l1.78,2.89,1.43,3.99c2.28,2.16,2.37,5.34,1.1,8.04-.75,1.96-.93,4.06-.07,6.01.57,2.27.66,4.37.23,6.75l.54,2.99,3.19.3c1.92-.96,3.08-1.27,4.88-1.58l2.74-.84c1.28-.41,2.42-1.97,2.43-3.28l-1.59-3.83c-.41-1.95-.24-4.3.48-6.21l.84-2.42c.79-2.44.39-5.16-1.87-6.78-1.1-1.89-1.98-3.96-2.35-6.02,1.04-2.4,0-4.07-1.3-5.83l-2.09-2.45c-2.67-.58-3.59-1.06-5.95-2.31-.26-1.96-.38-3.21-.47-5.23,2.34-2.12,4.3-3.52,6.97-4.64l4.13-.12c3.39-1.1,6.87-1.37,10.37-.67l6.37.18c2.42-1.13,4.55-.53,6.83.44,1.58.75,2.7,1.45,4.17,2.51.97,1.53,1.68,3.07,1.98,4.68l-.16,4.79c1.94,2.46,2.28,5.54.76,8.31l-1.34,5.88c-.48,2.43-2.38,4.85-4.96,5.65l-3.25,3.26c-.16,2.14-.62,3.33-2.07,4.82l-.92,5.83c1.69,1.96,3.74,2.76,6.33,2.27,2.06-.35,4.09-.2,5.93.61,2.19.87,4.19,1.29,6.71,1.17l8.01,3.21,3.84,2.23c1.55,1.3,2.92,2.21,4.71,3.2,1.48.75,2.79,2.01,3.59,3.55l5.22,4.97c1.75,1.18,3.28,2.82,4.34,4.6.9,2.98,2.43,5.32,4.55,7.49l1.84,3.51,1.66,4.32,1.47,4.5,1.28,4.03.69,5.91.37,7.33-1.9,4.69-3.33,2.47c-2.34-.3-4.23-.89-6.01-2.35l-1.84-.83-1.23,1.72c-.05,2.28-1.66,4.22-3.88,4.3l-4.43.29c-1.44.04-3.12-.85-3.93-2.17l-2.38-1.13c-.27-.8.3-2.69,1.05-3.29l2.59-1.12,3.47-3.36c1.42-1.01,2.76-1.75,4.52-1.41l2.58-.82.57-2.8-.8-3.26c-.84-1.46-3.09-1.88-4.75-.87-1.89.71-3.75.88-5.58-.03-1-.35-2.24-.28-3.24.15l-3.23.22c-.85.7-1.29,2.89-.44,4.23.54,3.02.55,5.7.45,8.86-.35,1.55-.72,2.84-1.41,4.24l-.81,2.89c-.07,1.75-.74,3.36-1.65,4.79l-.72,4.27,2.33,3.55,1.98,1.6,4.1,4.41,3.69,1.57c1.96-2.06,2.95-3.37,3.9-5.63l1.97-2.81c-.86-2.06-.41-4.97,2.02-5.66l3.72-2.19,3.58-3.32c.95-.57,2.61-1.17,3.83-1.45,3.7,1.67,4.98,4.43,4.64,8.17l-1.21,4.84c-.95,1.83-1.39,3.62-1.62,5.7l-1.76,4.1-2.8,6.2c-1.77,1.78-3.67,3.14-5.92,3.95l-4.18-.63-3.54-3.07-1.58-1.54c-.35-1.25-2.05-2.05-3.32-1.47-1.81.23-3.76.31-5.18.15l-3.21-1.36c-3.09-.24-5.37-2.33-5.59-5.65l-2.01-1.45-2.68,2.85-3.66,3.33-.08,3.33c-.98,1.18-1.4,2.06-1.45,3.31-.37,1.79-.87,2.99-1.65,4.56l-2.82,2.17c-2.58-.72-4.1-2.28-3.51-5.05l-.94-2.46-2.81-.04-4.7,1.43-2.52,1.45c.38,2.7-.01,3.9-1.27,5.58l-.76,2.31-.89,2.8,2.69,2.31,3.61-3.99c.55.1,2.14.95,2.42,1.36l1.8,4.66,4.48.52c1.35-.86,3.22.18,3.27,1.64l2.43,3.67c2.47,2.8,1.08,6.58-2.03,8.38-3.39,1.5-7.06,1.96-10.84,1.86-3.74.87-7.61,1.48-11.38,1.56l-5.15-1.14c-1.02-1.03-2.47-2.94-3.12-4.05-1.02,1.23-2.42,2.59-3.71,3.53l-6.38-.35-6.43-2.75c-3.49.34-6.77-.42-9.66-2.29l-3.77-1.64c-2.54-1.09-4.62-2.88-6.17-5.24-.62-2.72-.1-5.49,1.99-7.28,1.68-1.31,2.88-2.65,3.89-4.63,1.21-1.45,3.21-2.31,5.42-2.3,1.66-.78,3.04-2.03,4.05-3.79,1.48-1.12,3.15-2.06,4.97-2.81l2.89-2.41,1.99-1.93-2.18-2.09-2.76-1.91-4.48-3.95c-1.17.86-2.35,2.35-2.88,3.72ZM88.35,76.79c2.61-1.47,4.76-1.64,7.36-.9l2.42-1.49-.36-2.69c-1.26-2.52-1.43-5.19,1.12-7.28.12-1.12.02-1.67-.45-3.13-2.13-.09-3.33-.07-5.12.21-1.78.63-3.4.82-5.37.75-1.86,0-2.86.4-4.64,1.65l2.23,4.14c.23,1.14.05,3.44-.24,4.87l.38,4.14,2.67-.27ZM118.33,75.15l3.07-.9,3.13-3.48-2.88-1.98c-1.5-.47-2.36-.95-3.55-2.01l-2.52-.83-2.76-1-2.36-.53-1.2,2.76c.3,2.75-.97,5.39-3.74,6.54l-.91,1.99,1.45.79,3.87,1.43,5.3,2.89.62-1.71,2.5-3.96ZM72.29,87.49l2.67-3.52,5.85-3.88-2.13-1.97c-3.17-.22-4.42-3.04-3.97-5.61l-1.23-2.68-2.34-1.45-4.43,5-4.26,3.6-.16,2.69,2.02.83c1.54.32,2.95,1.35,3.71,2.84l2.24,1.4,2.03,2.75ZM128.87,91.99l2.96-1.6c1.19.09,2.19-.59,2.53-1.6.96-1.12,1.69-1.73,3.17-2.47.61-.4,1.24-1.33,1.49-2.01l-2.08-2.65c-1.81-1.1-3.09-2.43-3.96-4.57l-2.01-1.36-1.79,1.26c-1.24,2.38-3.69,3.2-6.12,2.65l-4.15,4.08,2.77,3.56,1.28,2.27,1.88,2.2,2.11,3.48,1.92-3.24ZM98.59,125.74l-3.23,2.12c-1.86.41-4.21.33-6.26-.2l-3.61.44-.06,3.04c.97,1.55.81,3.48-.23,4.83l-1.1,3.18c2.46.68,4.1.86,6.4.74l2.64-.78c1.74-1.04,3.52-1.84,5.46-2.24l6.46-2.89-.9-2.43-2.89-1.57,1.28-2.73,3.04-.82,4.46,1.73c1.19-.57,2.88-2.84,3.58-4.5l1.7-4.8c.07-2.12.5-3.87,1.58-5.81.54-2.2.48-4.82.04-7.1l-1.59-4.57-.61-2.92-1.83-3.09c-1.67-2.58-4.55-4.04-7.41-5.09l-4.41-2.2-3.48-1.49-4.02,1.5-5.01,2.17-3.98,2.09c-1.17,1.32-2.2,2.72-3.02,4.2l-1.19,4.24-.59,2.56,1.11,5.54,1.68,3.52,2.45,1.26c2.7,2.33,6.23,2.66,9.39.97,1.95-.41,3.45-1.77,4.06-3.64,1.56-2.39,1.05-4.94-1.45-6.49l-1.92.39-.21,1.74c-.68,2.05-2.49,2.69-4.95,2.07-1.04-1.25-1.82-2.77-2.44-4.45l1.14-4.24c1.48-2.4,3.59-3.58,6.31-4.04l4.43-1.11,6.46,4.13,2.09,2.45,1.56,4.64c1,2.05.88,4.63-.13,6.63l-1.35,4.16c-.45,1.4-1.12,2.75-2.01,3.94-1.81,2.47-3.81,4.58-7.38,4.94ZM67.68,102.91c-.85-2.5-.47-3.76.38-5.58l-.02-1.67-1.51-.21c-1.43.34-2.79-.15-3.65-1.73l-2.21-.13-2.28-1.35-2.38-.82-.84,1.98-.28,5.12c-1.87,2.67-1.43,5.23.23,8.11l3.27-.94c1.2-1.01,3.07-1.08,4.43-.59l3.74.79,1.12-2.96ZM70.77,135.33l2.54.58,1.07-2.4c-.72-3,1.06-5.36,3.56-6.49l.69-1.71-1.29-1.02-2.56-2.58c-.67-.28-1.81-.46-3-.47-1.88-.39-3.53-2.19-3.7-4.47l-2.81-1.89-2.55,3.21-1.67,1-2.32,1.12.18,2.58,2.04,4.14,3.56,2.94,3.87,3.32,2.38,2.13ZM77.72,177.27l.93-2.85,1.57-3.96.73-2.87c-.48-1.53-.19-2.96.7-3.98l1.21-3.04-.29-3.66,1.62-3.67c.16-.72-.8-2.28-1.47-2.05l-4.58-1.17-4.64-1.7-2.16-.23-.57,2.07-.46,2.53-1.84,2.6-3.92,5.75-.79,2.51,1.86,1.48c1.39,0,3.07-.39,4.03-1.24l3.21-2.62c2.33.8,3.12,2.38,2.18,4.4-.43,1.6-.36,3.42.3,5l.33,3.3,2.04,3.4Z"/>
  <path class="st0" d="M129.93,172.55l-3.27,1.86-3.99,2.09c-2.24.83-3.87,1.2-6.58,1.62l-3.43-3.77.66-7.07,3-3.69-.43-3.53c-.4-1.41-.25-3.01.37-4.6.11-.85.07-1.85-.13-2.65-.96-1.83-.84-3.23-.14-5.25,1.5-.73,2.75-.84,4.26-.39l5.64,5.73,4.13.88,2.44.18,5.21-1.18,5.37-.94c1.94,2.17,2.32,3.44,2.25,6.24-1.24,2.39-2.71,4.46-4.65,6.29-1.99,1.33-3.51,2.74-4.94,4.74-1.54,1.41-3.55,2.52-5.77,3.43Z"/>
</svg>